<svg width="32.000000" height="32.000000" viewBox="0 0 32 32" fill="none" xmlns="http://www.w3.org/2000/svg" xmlns:xlink="http://www.w3.org/1999/xlink">
	<desc>
			Created with Pixso.
	</desc>
	<defs>
		<clipPath id="clip6_130">
			<rect id="tabler-icon-steering-wheel" width="32.000000" height="32.000000" fill="white" fill-opacity="0"/>
		</clipPath>
	</defs>
	<rect id="tabler-icon-steering-wheel" width="32.000000" height="32.000000" fill="#FFFFFF" fill-opacity="0"/>
	<g clip-path="url(#clip6_130)">
		<path id="Vector" d="M4.91333 20.5922C5.5166 22.0481 6.40039 23.371 7.51465 24.4853C8.62891 25.5996 9.9519 26.4835 11.4077 27.0865C12.8638 27.6896 14.4241 28 16 28C17.5759 28 19.1362 27.6896 20.5923 27.0865C22.0481 26.4835 23.3711 25.5996 24.4854 24.4853C25.5996 23.371 26.4834 22.0481 27.0867 20.5922C27.6897 19.1363 28 17.5759 28 16C28 14.4241 27.6897 12.8637 27.0867 11.4078C26.4834 9.9519 25.5996 8.62903 24.4854 7.51471C23.3711 6.40042 22.0481 5.51651 20.5923 4.91345C19.1362 4.31039 17.5759 4 16 4C14.4241 4 12.8638 4.31039 11.4077 4.91345C9.9519 5.51651 8.62891 6.40042 7.51465 7.51471C6.40039 8.62903 5.5166 9.9519 4.91333 11.4078C4.3103 12.8637 4 14.4241 4 16C4 17.5759 4.3103 19.1363 4.91333 20.5922ZM14.1145 17.8856C14.6145 18.3857 15.2927 18.6667 16 18.6667C16.7073 18.6667 17.3855 18.3857 17.8855 17.8856C18.3857 17.3855 18.6667 16.7072 18.6667 16C18.6667 15.2928 18.3857 14.6145 17.8855 14.1144C17.3855 13.6143 16.7073 13.3333 16 13.3333C15.2927 13.3333 14.6145 13.6143 14.1145 14.1144C13.6143 14.6145 13.3333 15.2928 13.3333 16C13.3333 16.7072 13.6143 17.3855 14.1145 17.8856ZM16 18.6667L16 28M13.3333 16L4.33325 13.3333M18.6667 16L27.6667 13.3333" stroke="#030712" stroke-opacity="0.700000" stroke-width="2.000000" stroke-linejoin="round" stroke-linecap="round"/>
	</g>
</svg>
